<svg xmlns="http://www.w3.org/2000/svg" viewBox="0 0 1080 760" role="img" aria-label="Decorative dusk house scene">
  <defs>
    <linearGradient id="sky" x1="0" y1="0" x2="0" y2="1">
      <stop offset="0" stop-color="#071a2d"/>
      <stop offset="0.5" stop-color="#153856"/>
      <stop offset="1" stop-color="#5d7486"/>
    </linearGradient>
    <linearGradient id="glass" x1="0" y1="0" x2="1" y2="1">
      <stop offset="0" stop-color="#ffd77a" stop-opacity="0.92"/>
      <stop offset="1" stop-color="#a56228" stop-opacity="0.78"/>
    </linearGradient>
    <linearGradient id="wall" x1="0" y1="0" x2="0" y2="1">
      <stop offset="0" stop-color="#d9dde1"/>
      <stop offset="1" stop-color="#9faab1"/>
    </linearGradient>
    <linearGradient id="lawn" x1="0" y1="0" x2="0" y2="1">
      <stop offset="0" stop-color="#254939"/>
      <stop offset="1" stop-color="#132b23"/>
    </linearGradient>
    <filter id="shadow" x="-20%" y="-20%" width="140%" height="160%">
      <feDropShadow dx="0" dy="18" stdDeviation="18" flood-color="#000" flood-opacity="0.38"/>
    </filter>
    <filter id="glow" x="-60%" y="-60%" width="220%" height="220%">
      <feGaussianBlur stdDeviation="9"/>
    </filter>
  </defs>

  <rect width="1080" height="760" fill="url(#sky)"/>
  <g opacity="0.38" fill="#d8ecff">
    <circle cx="104" cy="92" r="2"/><circle cx="188" cy="56" r="1.5"/><circle cx="316" cy="116" r="1.5"/>
    <circle cx="704" cy="70" r="2"/><circle cx="864" cy="118" r="1.5"/><circle cx="972" cy="72" r="2"/>
  </g>
  <path d="M0 392 C135 330 230 350 350 330 C490 307 642 327 780 300 C910 274 997 300 1080 284 L1080 520 L0 520 Z" fill="#17352d" opacity="0.78"/>
  <g fill="#0d2a24" opacity="0.92">
    <path d="M0 420 L42 310 L78 420 Z"/><path d="M40 430 L104 282 L160 430 Z"/>
    <path d="M930 430 L984 294 L1032 430 Z"/><path d="M990 432 L1040 306 L1080 430 Z"/>
  </g>

  <rect y="610" width="1080" height="150" fill="url(#lawn)"/>
  <path d="M282 760 L406 602 L696 602 L816 760 Z" fill="#7f8d93" opacity="0.55"/>
  <path d="M40 760 L205 622 L378 622 L306 760 Z" fill="#5e6a70" opacity="0.58"/>

  <g filter="url(#shadow)">
    <path d="M164 350 L322 246 L666 246 L820 348 L820 615 L164 615 Z" fill="url(#wall)"/>
    <path d="M642 360 L768 262 L946 352 L946 615 L642 615 Z" fill="#cdd2d5"/>
    <path d="M126 362 L320 220 L688 220 L848 350 L818 372 L650 270 L320 270 L162 382 Z" fill="#202a31"/>
    <path d="M620 360 L756 236 L974 346 L946 368 L766 288 L648 384 Z" fill="#1a242b"/>

    <rect x="195" y="448" width="250" height="164" rx="8" fill="#354047"/>
    <g stroke="#6b777e" stroke-width="4" opacity="0.72">
      <line x1="208" y1="476" x2="432" y2="476"/><line x1="208" y1="508" x2="432" y2="508"/>
      <line x1="208" y1="540" x2="432" y2="540"/><line x1="208" y1="572" x2="432" y2="572"/>
    </g>

    <g>
      <rect x="245" y="332" width="154" height="110" rx="5" fill="#1b2b35"/>
      <rect x="255" y="342" width="64" height="90" fill="url(#glass)"/>
      <rect x="325" y="342" width="64" height="90" fill="url(#glass)"/>
      <line x1="322" y1="342" x2="322" y2="432" stroke="#2b3337" stroke-width="5"/>
    </g>

    <g>
      <rect x="482" y="320" width="148" height="138" rx="5" fill="#1b2b35"/>
      <rect x="493" y="332" width="126" height="116" fill="url(#glass)"/>
      <line x1="556" y1="332" x2="556" y2="448" stroke="#32383b" stroke-width="5"/>
      <rect x="474" y="444" width="165" height="14" fill="#4a555b"/>
      <g stroke="#455158" stroke-width="4">
        <line x1="486" y1="452" x2="486" y2="490"/><line x1="510" y1="452" x2="510" y2="490"/>
        <line x1="534" y1="452" x2="534" y2="490"/><line x1="558" y1="452" x2="558" y2="490"/>
        <line x1="582" y1="452" x2="582" y2="490"/><line x1="606" y1="452" x2="606" y2="490"/>
      </g>
    </g>

    <g>
      <rect x="746" y="342" width="146" height="106" rx="5" fill="#1b2b35"/>
      <rect x="757" y="352" width="58" height="86" fill="url(#glass)"/>
      <rect x="823" y="352" width="58" height="86" fill="url(#glass)"/>
      <line x1="819" y1="352" x2="819" y2="438" stroke="#31373b" stroke-width="5"/>
    </g>

    <g>
      <rect x="514" y="500" width="140" height="115" rx="5" fill="#1c2d36"/>
      <rect x="526" y="512" width="116" height="103" fill="url(#glass)"/>
      <line x1="584" y1="512" x2="584" y2="615" stroke="#30383c" stroke-width="5"/>
    </g>

    <g>
      <rect x="760" y="470" width="96" height="145" rx="5" fill="#23323a"/>
      <rect x="772" y="486" width="72" height="129" rx="3" fill="#2b3135"/>
      <rect x="832" y="548" width="6" height="6" rx="3" fill="#e7c36b"/>
    </g>

    <g fill="#ffd578" opacity="0.55" filter="url(#glow)">
      <circle cx="244" cy="474" r="24"/><circle cx="445" cy="474" r="24"/>
      <circle cx="738" cy="478" r="20"/><circle cx="873" cy="478" r="20"/>
    </g>
    <g fill="#f2d7a0">
      <circle cx="244" cy="474" r="6"/><circle cx="445" cy="474" r="6"/>
      <circle cx="738" cy="478" r="6"/><circle cx="873" cy="478" r="6"/>
    </g>
  </g>

  <g fill="#2b4937">
    <ellipse cx="120" cy="625" rx="80" ry="34"/><ellipse cx="928" cy="625" rx="94" ry="36"/>
    <ellipse cx="472" cy="640" rx="76" ry="26"/><ellipse cx="692" cy="644" rx="68" ry="25"/>
  </g>
  <g fill="#203b30">
    <circle cx="106" cy="602" r="42"/><circle cx="930" cy="594" r="46"/><circle cx="994" cy="612" r="34"/>
    <circle cx="456" cy="620" r="30"/><circle cx="704" cy="624" r="32"/>
  </g>

  <g fill="#f6d98b">
    <rect x="354" y="645" width="7" height="30" rx="3"/><circle cx="357" cy="642" r="10"/>
    <rect x="678" y="650" width="7" height="28" rx="3"/><circle cx="681" cy="648" r="10"/>
    <rect x="866" y="640" width="7" height="31" rx="3"/><circle cx="869" cy="637" r="10"/>
  </g>
</svg>
